solid 06 - Guida per Sostegno Stepper
facet normal 0.0 0.0 -1.0
  outer loop
    vertex 39.00000000000001 45.00000000000003 0.0
    vertex 0.0 0.0 0.0
    vertex 0.0 45.00000000000003 0.0
  endloop
endfacet
facet normal 0.0 0.0 -1.0
  outer loop
    vertex 0.0 0.0 0.0
    vertex 39.00000000000001 45.00000000000003 0.0
    vertex 39.00000000000001 0.0 0.0
  endloop
endfacet
facet normal -1.0 0.0 0.0
  outer loop
    vertex 0.0 45.00000000000003 4.499999999999999
    vertex 0.0 0.0 0.0
    vertex 0.0 0.0 4.499999999999999
  endloop
endfacet
facet normal -1.0 0.0 0.0
  outer loop
    vertex 0.0 0.0 0.0
    vertex 0.0 45.00000000000003 4.499999999999999
    vertex 0.0 45.00000000000003 0.0
  endloop
endfacet
facet normal 1.0 -0.0 -0.0
  outer loop
    vertex 39.00000000000001 45.00000000000003 0.0
    vertex 39.00000000000001 0.0 4.499999999999999
    vertex 39.00000000000001 0.0 0.0
  endloop
endfacet
facet normal 1.0 -0.0 -0.0
  outer loop
    vertex 39.00000000000001 0.0 4.499999999999999
    vertex 39.00000000000001 45.00000000000003 0.0
    vertex 39.00000000000001 45.00000000000003 4.499999999999999
  endloop
endfacet
facet normal -0.0 1.0 -0.0
  outer loop
    vertex 8.000000000000005 44.99999999999997 7.999999999999998
    vertex 12.000000000000004 44.99999999999997 4.999999999999999
    vertex 8.000000000000005 44.99999999999997 4.999999999999999
  endloop
endfacet
facet normal -0.0 1.0 -0.0
  outer loop
    vertex 12.000000000000004 44.99999999999997 4.999999999999999
    vertex 8.000000000000005 44.99999999999997 7.999999999999998
    vertex 12.000000000000004 44.99999999999997 7.999999999999998
  endloop
endfacet
facet normal -0.0 1.0 -0.0
  outer loop
    vertex 12.000000000000004 44.99999999999997 7.999999999999998
    vertex 8.000000000000005 44.99999999999997 7.999999999999998
    vertex 5.000000000000004 44.99999999999997 9.499999999999996
  endloop
endfacet
facet normal -0.0 1.0 -0.0
  outer loop
    vertex 12.000000000000004 44.99999999999997 7.999999999999998
    vertex 5.000000000000004 44.99999999999997 9.499999999999996
    vertex 15.000000000000004 44.99999999999997 9.499999999999996
  endloop
endfacet
facet normal -0.0 1.0 -0.0
  outer loop
    vertex 15.000000000000004 44.99999999999997 9.499999999999996
    vertex 5.000000000000004 44.99999999999997 9.499999999999996
    vertex 5.000000000000004 44.99999999999997 10.499999999999996
  endloop
endfacet
facet normal -0.0 1.0 -0.0
  outer loop
    vertex 15.000000000000004 44.99999999999997 9.499999999999996
    vertex 5.000000000000004 44.99999999999997 10.499999999999996
    vertex 15.000000000000004 44.99999999999997 10.499999999999996
  endloop
endfacet
facet normal 0.0 0.0 1.0
  outer loop
    vertex 15.000000000000004 0.0 10.499999999999996
    vertex 5.000000000000004 44.99999999999997 10.499999999999996
    vertex 5.000000000000004 0.0 10.499999999999996
  endloop
endfacet
facet normal 0.0 0.0 1.0
  outer loop
    vertex 5.000000000000004 44.99999999999997 10.499999999999996
    vertex 15.000000000000004 0.0 10.499999999999996
    vertex 15.000000000000004 44.99999999999997 10.499999999999996
  endloop
endfacet
facet normal 0.0 -1.0 0.0
  outer loop
    vertex 31.0 0.0 7.999999999999999
    vertex 27.0 0.0 4.499999999999999
    vertex 31.0 0.0 4.499999999999999
  endloop
endfacet
facet normal 0.0 -1.0 0.0
  outer loop
    vertex 27.0 0.0 4.499999999999999
    vertex 31.0 0.0 7.999999999999999
    vertex 27.0 0.0 7.999999999999998
  endloop
endfacet
facet normal 0.0 -1.0 0.0
  outer loop
    vertex 27.0 0.0 7.999999999999998
    vertex 31.0 0.0 7.999999999999999
    vertex 24.0 0.0 9.499999999999998
  endloop
endfacet
facet normal 0.0 -1.0 0.0
  outer loop
    vertex 24.0 0.0 9.499999999999998
    vertex 31.0 0.0 7.999999999999999
    vertex 34.0 0.0 9.5
  endloop
endfacet
facet normal 0.0 -1.0 0.0
  outer loop
    vertex 24.0 0.0 9.499999999999998
    vertex 34.0 0.0 9.5
    vertex 24.0 0.0 10.499999999999998
  endloop
endfacet
facet normal 0.0 -1.0 0.0
  outer loop
    vertex 24.0 0.0 10.499999999999998
    vertex 34.0 0.0 9.5
    vertex 34.0 0.0 10.499999999999998
  endloop
endfacet
facet normal 0.0 -1.0 0.0
  outer loop
    vertex 12.000000000000004 0.0 7.999999999999998
    vertex 8.000000000000005 0.0 4.499999999999999
    vertex 12.000000000000004 0.0 4.499999999999999
  endloop
endfacet
facet normal 0.0 -1.0 0.0
  outer loop
    vertex 8.000000000000005 0.0 4.499999999999999
    vertex 12.000000000000004 0.0 7.999999999999998
    vertex 8.000000000000005 0.0 7.999999999999998
  endloop
endfacet
facet normal 0.0 -1.0 0.0
  outer loop
    vertex 8.000000000000005 0.0 7.999999999999998
    vertex 12.000000000000004 0.0 7.999999999999998
    vertex 15.000000000000004 0.0 9.499999999999996
  endloop
endfacet
facet normal 0.0 -1.0 0.0
  outer loop
    vertex 8.000000000000005 0.0 7.999999999999998
    vertex 15.000000000000004 0.0 9.499999999999996
    vertex 5.000000000000004 0.0 9.499999999999996
  endloop
endfacet
facet normal 0.0 -1.0 0.0
  outer loop
    vertex 5.000000000000004 0.0 9.499999999999996
    vertex 15.000000000000004 0.0 9.499999999999996
    vertex 15.000000000000004 0.0 10.499999999999996
  endloop
endfacet
facet normal 0.0 -1.0 0.0
  outer loop
    vertex 5.000000000000004 0.0 9.499999999999996
    vertex 15.000000000000004 0.0 10.499999999999996
    vertex 5.000000000000004 0.0 10.499999999999996
  endloop
endfacet
facet normal 0.0 -1.0 0.0
  outer loop
    vertex 39.00000000000001 0.0 4.499999999999999
    vertex 0.0 0.0 0.0
    vertex 39.00000000000001 0.0 0.0
  endloop
endfacet
facet normal 0.0 -1.0 0.0
  outer loop
    vertex 0.0 0.0 0.0
    vertex 39.00000000000001 0.0 4.499999999999999
    vertex 0.0 0.0 4.499999999999999
  endloop
endfacet
facet normal 0.0 -1.0 0.0
  outer loop
    vertex 0.0 0.0 4.499999999999999
    vertex 39.00000000000001 0.0 4.499999999999999
    vertex 31.0 0.0 4.499999999999999
  endloop
endfacet
facet normal 0.0 -1.0 0.0
  outer loop
    vertex 0.0 0.0 4.499999999999999
    vertex 31.0 0.0 4.499999999999999
    vertex 27.0 0.0 4.499999999999999
  endloop
endfacet
facet normal 0.0 -1.0 0.0
  outer loop
    vertex 0.0 0.0 4.499999999999999
    vertex 27.0 0.0 4.499999999999999
    vertex 12.000000000000004 0.0 4.499999999999999
  endloop
endfacet
facet normal 0.0 -1.0 0.0
  outer loop
    vertex 0.0 0.0 4.499999999999999
    vertex 12.000000000000004 0.0 4.499999999999999
    vertex 8.000000000000005 0.0 4.499999999999999
  endloop
endfacet
facet normal -0.0 1.0 -0.0
  outer loop
    vertex 27.0 45.0 7.999999999999998
    vertex 31.0 45.0 4.999999999999999
    vertex 27.0 45.0 4.999999999999999
  endloop
endfacet
facet normal -0.0 1.0 -0.0
  outer loop
    vertex 31.0 45.0 4.999999999999999
    vertex 27.0 45.0 7.999999999999998
    vertex 31.0 45.0 7.999999999999999
  endloop
endfacet
facet normal -0.0 1.0 -0.0
  outer loop
    vertex 31.0 45.0 7.999999999999999
    vertex 27.0 45.0 7.999999999999998
    vertex 24.0 45.0 9.499999999999998
  endloop
endfacet
facet normal -0.0 1.0 -0.0
  outer loop
    vertex 31.0 45.0 7.999999999999999
    vertex 24.0 45.0 9.499999999999998
    vertex 34.0 45.0 9.5
  endloop
endfacet
facet normal -0.0 1.0 -0.0
  outer loop
    vertex 34.0 45.0 9.5
    vertex 24.0 45.0 9.499999999999998
    vertex 24.0 45.0 10.499999999999998
  endloop
endfacet
facet normal -0.0 1.0 -0.0
  outer loop
    vertex 34.0 45.0 9.5
    vertex 24.0 45.0 10.499999999999998
    vertex 34.0 45.0 10.499999999999998
  endloop
endfacet
facet normal -1.281802946612681e-16 0.0 1.0
  outer loop
    vertex 34.0 0.0 10.499999999999998
    vertex 24.0 45.0 10.499999999999998
    vertex 24.0 0.0 10.499999999999998
  endloop
endfacet
facet normal -1.281802946612681e-16 0.0 1.0
  outer loop
    vertex 24.0 45.0 10.499999999999998
    vertex 34.0 0.0 10.499999999999998
    vertex 34.0 45.0 10.499999999999998
  endloop
endfacet
facet normal -2.247692214720925e-16 1.0 6.015928496102181e-15
  outer loop
    vertex 8.000000000000005 44.99999999999997 4.999999999999999
    vertex 12.000000000000004 44.99999999999997 4.499999999999999
    vertex 8.000000000000005 44.99999999999997 4.499999999999999
  endloop
endfacet
facet normal -2.247692214720925e-16 1.0 6.015928496102181e-15
  outer loop
    vertex 12.000000000000004 44.99999999999997 4.499999999999999
    vertex 8.000000000000005 44.99999999999997 4.999999999999999
    vertex 12.000000000000004 44.99999999999997 4.999999999999999
  endloop
endfacet
facet normal -2.247692214720925e-16 1.0 6.015928496102181e-15
  outer loop
    vertex 27.0 45.0 4.999999999999999
    vertex 31.0 45.0 4.499999999999999
    vertex 27.0 45.0 4.499999999999999
  endloop
endfacet
facet normal -2.247692214720925e-16 1.0 6.015928496102181e-15
  outer loop
    vertex 31.0 45.0 4.499999999999999
    vertex 27.0 45.0 4.999999999999999
    vertex 31.0 45.0 4.999999999999999
  endloop
endfacet
facet normal -2.247692214720925e-16 1.0 6.015928496102181e-15
  outer loop
    vertex 0.0 45.00000000000003 4.499999999999999
    vertex 39.00000000000001 45.00000000000003 0.0
    vertex 0.0 45.00000000000003 0.0
  endloop
endfacet
facet normal -2.247692214720925e-16 1.0 6.015928496102181e-15
  outer loop
    vertex 39.00000000000001 45.00000000000003 0.0
    vertex 0.0 45.00000000000003 4.499999999999999
    vertex 39.00000000000001 45.00000000000003 4.499999999999999
  endloop
endfacet
facet normal -2.247692214720925e-16 1.0 6.015928496102181e-15
  outer loop
    vertex 39.00000000000001 45.00000000000003 4.499999999999999
    vertex 0.0 45.00000000000003 4.499999999999999
    vertex 8.000000000000005 44.99999999999997 4.499999999999999
  endloop
endfacet
facet normal -2.247692214720925e-16 1.0 6.015928496102181e-15
  outer loop
    vertex 39.00000000000001 45.00000000000003 4.499999999999999
    vertex 8.000000000000005 44.99999999999997 4.499999999999999
    vertex 12.000000000000004 44.99999999999997 4.499999999999999
  endloop
endfacet
facet normal -2.247692214720925e-16 1.0 6.015928496102181e-15
  outer loop
    vertex 39.00000000000001 45.00000000000003 4.499999999999999
    vertex 12.000000000000004 44.99999999999997 4.499999999999999
    vertex 27.0 45.0 4.499999999999999
  endloop
endfacet
facet normal -2.247692214720925e-16 1.0 6.015928496102181e-15
  outer loop
    vertex 39.00000000000001 45.00000000000003 4.499999999999999
    vertex 27.0 45.0 4.499999999999999
    vertex 31.0 45.0 4.499999999999999
  endloop
endfacet
facet normal 0.0 0.0 1.0
  outer loop
    vertex 8.000000000000005 0.0 4.499999999999999
    vertex 0.0 45.00000000000003 4.499999999999999
    vertex 0.0 0.0 4.499999999999999
  endloop
endfacet
facet normal 0.0 0.0 1.0
  outer loop
    vertex 0.0 45.00000000000003 4.499999999999999
    vertex 8.000000000000005 0.0 4.499999999999999
    vertex 8.000000000000005 44.99999999999997 4.499999999999999
  endloop
endfacet
facet normal 0.0 0.0 1.0
  outer loop
    vertex 27.0 0.0 4.499999999999999
    vertex 12.000000000000004 44.99999999999997 4.499999999999999
    vertex 12.000000000000004 0.0 4.499999999999999
  endloop
endfacet
facet normal 0.0 0.0 1.0
  outer loop
    vertex 12.000000000000004 44.99999999999997 4.499999999999999
    vertex 27.0 0.0 4.499999999999999
    vertex 27.0 45.0 4.499999999999999
  endloop
endfacet
facet normal 0.0 0.0 1.0
  outer loop
    vertex 39.00000000000001 0.0 4.499999999999999
    vertex 31.0 45.0 4.499999999999999
    vertex 31.0 0.0 4.499999999999999
  endloop
endfacet
facet normal 0.0 0.0 1.0
  outer loop
    vertex 31.0 45.0 4.499999999999999
    vertex 39.00000000000001 0.0 4.499999999999999
    vertex 39.00000000000001 45.00000000000003 4.499999999999999
  endloop
endfacet
facet normal -1.0 0.0 0.0
  outer loop
    vertex 5.000000000000004 44.99999999999997 10.499999999999996
    vertex 5.000000000000004 0.0 9.499999999999996
    vertex 5.000000000000004 0.0 10.499999999999996
  endloop
endfacet
facet normal -1.0 0.0 0.0
  outer loop
    vertex 5.000000000000004 0.0 9.499999999999996
    vertex 5.000000000000004 44.99999999999997 10.499999999999996
    vertex 5.000000000000004 44.99999999999997 9.499999999999996
  endloop
endfacet
facet normal 1.0 -0.0 -0.0
  outer loop
    vertex 15.000000000000004 44.99999999999997 9.499999999999996
    vertex 15.000000000000004 0.0 10.499999999999996
    vertex 15.000000000000004 0.0 9.499999999999996
  endloop
endfacet
facet normal 1.0 -0.0 -0.0
  outer loop
    vertex 15.000000000000004 0.0 10.499999999999996
    vertex 15.000000000000004 44.99999999999997 9.499999999999996
    vertex 15.000000000000004 44.99999999999997 10.499999999999996
  endloop
endfacet
facet normal -1.0 0.0 0.0
  outer loop
    vertex 8.000000000000005 44.99999999999997 7.999999999999998
    vertex 8.000000000000005 0.0 4.499999999999999
    vertex 8.000000000000005 0.0 7.999999999999998
  endloop
endfacet
facet normal -1.0 0.0 0.0
  outer loop
    vertex 8.000000000000005 0.0 4.499999999999999
    vertex 8.000000000000005 44.99999999999997 7.999999999999998
    vertex 8.000000000000005 44.99999999999997 4.499999999999999
  endloop
endfacet
facet normal -1.0 0.0 0.0
  outer loop
    vertex 8.000000000000005 44.99999999999997 4.499999999999999
    vertex 8.000000000000005 44.99999999999997 7.999999999999998
    vertex 8.000000000000005 44.99999999999997 4.999999999999999
  endloop
endfacet
facet normal 1.0 -0.0 -0.0
  outer loop
    vertex 12.000000000000004 44.99999999999997 4.499999999999999
    vertex 12.000000000000004 0.0 7.999999999999998
    vertex 12.000000000000004 0.0 4.499999999999999
  endloop
endfacet
facet normal 1.0 -0.0 -0.0
  outer loop
    vertex 12.000000000000004 0.0 7.999999999999998
    vertex 12.000000000000004 44.99999999999997 4.499999999999999
    vertex 12.000000000000004 44.99999999999997 7.999999999999998
  endloop
endfacet
facet normal 1.0 -0.0 -0.0
  outer loop
    vertex 12.000000000000004 44.99999999999997 7.999999999999998
    vertex 12.000000000000004 44.99999999999997 4.499999999999999
    vertex 12.000000000000004 44.99999999999997 4.999999999999999
  endloop
endfacet
facet normal -0.4472135954999576 0.0 -0.8944271909999162
  outer loop
    vertex 8.000000000000005 44.99999999999997 7.999999999999998
    vertex 5.000000000000004 0.0 9.499999999999996
    vertex 5.000000000000004 44.99999999999997 9.499999999999996
  endloop
endfacet
facet normal -0.4472135954999576 0.0 -0.8944271909999162
  outer loop
    vertex 5.000000000000004 0.0 9.499999999999996
    vertex 8.000000000000005 44.99999999999997 7.999999999999998
    vertex 8.000000000000005 0.0 7.999999999999998
  endloop
endfacet
facet normal 0.44721359549995765 0.0 -0.8944271909999162
  outer loop
    vertex 15.000000000000004 44.99999999999997 9.499999999999996
    vertex 12.000000000000004 0.0 7.999999999999998
    vertex 12.000000000000004 44.99999999999997 7.999999999999998
  endloop
endfacet
facet normal 0.44721359549995765 0.0 -0.8944271909999162
  outer loop
    vertex 12.000000000000004 0.0 7.999999999999998
    vertex 15.000000000000004 44.99999999999997 9.499999999999996
    vertex 15.000000000000004 0.0 9.499999999999996
  endloop
endfacet
facet normal -1.0 0.0 0.0
  outer loop
    vertex 24.0 45.0 10.499999999999998
    vertex 24.0 0.0 9.499999999999998
    vertex 24.0 0.0 10.499999999999998
  endloop
endfacet
facet normal -1.0 0.0 0.0
  outer loop
    vertex 24.0 0.0 9.499999999999998
    vertex 24.0 45.0 10.499999999999998
    vertex 24.0 45.0 9.499999999999998
  endloop
endfacet
facet normal 1.0 -0.0 -0.0
  outer loop
    vertex 34.0 45.0 9.5
    vertex 34.0 0.0 10.499999999999998
    vertex 34.0 0.0 9.5
  endloop
endfacet
facet normal 1.0 -0.0 -0.0
  outer loop
    vertex 34.0 0.0 10.499999999999998
    vertex 34.0 45.0 9.5
    vertex 34.0 45.0 10.499999999999998
  endloop
endfacet
facet normal -1.0 0.0 0.0
  outer loop
    vertex 27.0 45.0 7.999999999999998
    vertex 27.0 0.0 4.499999999999999
    vertex 27.0 0.0 7.999999999999998
  endloop
endfacet
facet normal -1.0 0.0 0.0
  outer loop
    vertex 27.0 0.0 4.499999999999999
    vertex 27.0 45.0 7.999999999999998
    vertex 27.0 45.0 4.499999999999999
  endloop
endfacet
facet normal -1.0 0.0 0.0
  outer loop
    vertex 27.0 45.0 4.499999999999999
    vertex 27.0 45.0 7.999999999999998
    vertex 27.0 45.0 4.999999999999999
  endloop
endfacet
facet normal 1.0 -0.0 -0.0
  outer loop
    vertex 31.0 45.0 4.499999999999999
    vertex 31.0 0.0 7.999999999999999
    vertex 31.0 0.0 4.499999999999999
  endloop
endfacet
facet normal 1.0 -0.0 -0.0
  outer loop
    vertex 31.0 0.0 7.999999999999999
    vertex 31.0 45.0 4.499999999999999
    vertex 31.0 45.0 7.999999999999999
  endloop
endfacet
facet normal 1.0 -0.0 -0.0
  outer loop
    vertex 31.0 45.0 7.999999999999999
    vertex 31.0 45.0 4.499999999999999
    vertex 31.0 45.0 4.999999999999999
  endloop
endfacet
facet normal -0.447213595499958 0.0 -0.8944271909999161
  outer loop
    vertex 27.0 45.0 7.999999999999998
    vertex 24.0 0.0 9.499999999999998
    vertex 24.0 45.0 9.499999999999998
  endloop
endfacet
facet normal -0.447213595499958 0.0 -0.8944271909999161
  outer loop
    vertex 24.0 0.0 9.499999999999998
    vertex 27.0 45.0 7.999999999999998
    vertex 27.0 0.0 7.999999999999998
  endloop
endfacet
facet normal 0.447213595499958 0.0 -0.8944271909999161
  outer loop
    vertex 34.0 45.0 9.5
    vertex 31.0 0.0 7.999999999999999
    vertex 31.0 45.0 7.999999999999999
  endloop
endfacet
facet normal 0.447213595499958 0.0 -0.8944271909999161
  outer loop
    vertex 31.0 0.0 7.999999999999999
    vertex 34.0 45.0 9.5
    vertex 34.0 0.0 9.5
  endloop
endfacet
endsolid 06 - Guida per Sostegno Stepper
